<?xml version="1.0"?>
<svg xmlns:rdf="http://www.w3.org/1999/02/22-rdf-syntax-ns#" xmlns="http://www.w3.org/2000/svg" xmlns:cc="http://creativecommons.org/ns#" xmlns:xlink="http://www.w3.org/1999/xlink" xmlns:dc="http://purl.org/dc/elements/1.1/" xmlns:svg="http://www.w3.org/2000/svg" id="svg2" viewBox="0 0 223.67 224.31" version="1.1">
  <defs id="defs4">
    <linearGradient id="linearGradient3943-1" x1="159.88" xlink:href="#linearGradient3906-9" gradientUnits="userSpaceOnUse" x2="360.12" y1="462.37" y2="462.37"/>
    <linearGradient id="linearGradient3906-9">
      <stop id="stop3910-8" stop-opacity=".84615" offset="0"/>
      <stop id="stop3916-5" stop-opacity=".79487" offset=".20037"/>
      <stop id="stop3918-5" stop-color="#787878" stop-opacity=".89804" offset=".30025"/>
      <stop id="stop3920-1" stop-color="#212121" stop-opacity=".94902" offset=".40012"/>
      <stop id="stop3908-1" offset="1"/>
    </linearGradient>
    <linearGradient id="linearGradient3945-2" x1="159.88" xlink:href="#linearGradient3906-9" gradientUnits="userSpaceOnUse" y1="462.37" gradientTransform="translate(200)" x2="360.12" y2="462.37"/>
  </defs>
  <g id="layer1" transform="translate(-82.372 -631.23)">
    <g id="g3936" transform="matrix(.34704 0 0 .34704 69.055 572.09)">
      <path id="path2985" stroke="#fff" stroke-width=".20436" fill="#f00" d="m330.86 170.59c-0.64791 0.0557-1.3002 0.10004-1.9478 0.15966 0.00086 0.0105-0.00085 0.0215 0 0.0319 1.5221 18.722-3.6329 36.154-17.978 48.281s-25.178 14.707-43.651 11.304c-18.473-3.4033-32.253-16.025-39.691-33.273-0.594 0.26278-1.1954 0.49984-1.7882 0.76637 7.4473 17.245 8.2871 35.46-1.3731 51.57s-18.944 21.989-37.52 24.779c-18.576 2.7904-35.735-4.6591-48.377-18.552-0.0102-0.011-0.0219-0.0209-0.0319-0.0319-0.47421 0.43898-0.93363 0.89952-1.405 1.3411 12.649 13.887 19.318 30.902 15.391 49.271-3.9264 18.369-10.821 27.173-27.525 35.764-16.705 8.5908-35.283 7.0564-51.698-2.0756-0.3096 0.57543-0.6199 1.147-0.92603 1.7243 16.706 8.588 28.307 23.199 30.431 41.863 2.1243 18.664-1.3067 29.289-14.401 42.757-13.095 13.468-30.92 17.358-49.495 14.561-0.10661 0.6483-0.21661 1.2986-0.31932 1.9478 0.01058 0.002 0.02136-0.002 0.03193 0 18.576 2.7872 34.331 12.866 42.342 29.856s8.2983 27.97 0.28739 44.96c-8.011 16.99-23.644 26.459-42.118 29.856 0.10764 0.63715 0.23985 1.2797 0.35125 1.9159 0.01026-0.002 0.02166 0.002 0.03193 0 18.473-3.4064 36.623 1.0295 49.718 14.497s17.037 23.934 14.912 42.597c-2.1243 18.664-13.756 32.611-30.176 41.735 0.31254 0.57498 0.61002 1.1513 0.92603 1.7243 0.01262-0.007 0.0193-0.0249 0.03193-0.0319 16.415-9.132 35.153-10.762 51.857-2.1714 16.705 8.5908 24.046 17.075 27.972 35.444 3.9264 18.369-2.5187 35.161-15.168 49.047 0.4779 0.43851 0.9562 0.87338 1.4369 1.3092 12.642-13.893 28.697-21.846 47.355-19.67 18.658 2.1759 29.361 9.1165 39.021 25.226 9.6602 16.11 8.9801 34.038 1.5327 51.283-0.009 0.0219-0.0225 0.042-0.0319 0.0639 0.59443 0.25986 1.1926 0.51023 1.7882 0.76636 0.009-0.0218 0.0225-0.0421 0.0319-0.0639 7.4386-17.248 19.999-29.936 38.35-33.944 18.352-4.0078 30.871-0.88722 45.216 11.24s19.532 29.239 18.01 47.962c-0.00085 0.0105 0.00086 0.0215 0 0.0319 0.65264 0.0532 1.295 0.11033 1.9478 0.15966 0.00085-0.0106-0.00086-0.0214 0-0.0319 1.5126-18.723 9.4009-34.922 25.514-44.577 16.113-9.6552 27.318-10.194 44.992-3.8318 17.674 6.3623 29.232 21.14 33.752 39.372 0.002 0.0102-0.002 0.0217 0 0.0319 0.62536-0.15889 1.2594-0.31628 1.884-0.47898-0.002-0.0102 0.002-0.022 0-0.0319-4.5291-18.23-2.2827-36.282 9.8989-50.58 12.182-14.299 22.379-18.484 41.16-18.169 18.781 0.31426 34.453 10.531 44.641 26.312 0.008 0.0123 0.024 0.0196 0.0319 0.0319 0.53789-0.35185 1.0612-0.7309 1.5966-1.0857-10.196-15.776-13.957-33.544-7.0889-51.027 6.8683-17.483 15.209-24.81 33.082-30.591 17.872-5.7812 36.043-1.2159 50.772 10.442 0.004-0.005 0.0279 0.005 0.0319 0 0.39588-0.50926 0.78873-1.0212 1.1815-1.5327-14.735-11.65-24.092-27.38-23.183-46.142 0.90922-18.762 6.2596-28.618 21.362-39.787 15.103-11.169 33.674-12.656 51.347-6.2906 0.21064-0.61385 0.39971-1.2368 0.60671-1.852-17.873-5.7781-31.699-18.329-36.818-36.402s-3.4626-28.986 7.2486-44.417 27.712-22.798 46.493-22.48c0-1.1173-0.0204-2.2372-0.0319-3.3528-0.0106 0.00018-0.0213-0.00017-0.0319 0-18.781 0.31744-36.005-7.0491-46.716-22.48s-12.91-26.28-7.7914-44.353c5.119-18.073 18.886-29.95 36.562-36.307-0.21115-0.60667-0.42393-1.2149-0.63864-1.8201-0.009 0.003-0.0226-0.003-0.0319 0-17.673 6.3653-36.403 4.9422-51.506-6.2267s-20.964-20.77-21.873-39.532c-0.90923-18.762 8.1922-34.3 22.927-45.95-0.40424-0.51535-0.77404-1.0517-1.1815-1.5647-0.0119 0.009-0.02 0.0226-0.0319 0.0319-14.729 11.658-31.89 16.883-49.942 11.687-18.051-5.1957-25.832-13.12-33.273-30.367-7.4415-17.247-4.4801-35.89 5.7158-51.666 0.008-0.0124 0.0239-0.0196 0.0319-0.0319-0.54083-0.35043-1.0852-0.70628-1.6285-1.0538-0.008 0.0123-0.024 0.0196-0.0319 0.0319-10.188 15.781-24.699 26.299-43.459 27.238-18.761 0.93873-30.511-4.126-42.693-18.425s-14.492-32.031-9.9628-50.261c0.002-0.0102-0.002-0.0219 0-0.0319-0.63847-0.15934-1.2767-0.29166-1.9159-0.44705-0.002 0.0102 0.002 0.0219 0 0.0319-4.5199 18.232-14.889 32.918-32.347 39.851-17.458 6.9328-28.608 5.6167-45.024-3.5125s-25.47-25.598-26.982-44.322c-0.00086-0.0106 0.00086-0.0214 0-0.0319z"/>
      <path id="path3871" d="m575.18 493.45c0 77.359-41.27 148.84-108.26 187.52-66.994 38.679-149.54 38.679-216.53 0-66.995-38.679-108.26-110.16-108.26-187.52 0-77.359 41.27-148.84 108.26-187.52 66.994-38.679 149.54-38.679 216.53 0 66.994 38.679 108.26 110.16 108.26 187.52" fill-opacity=".88406" stroke="#fff" stroke-width=".13655" fill="#ff0"/>
      <path id="path3876" stroke="#fff" stroke-width=".25" fill="url(#linearGradient3943-1)" d="m262.58 512.36c54.03-1.37 97.42-45.63 97.42-100h-200c0 55.228 44.772 100 100 100 0.86295 0 1.7204 0.0217 2.5781 0z"/>
      <path id="path3922" stroke="#fff" stroke-width=".25" fill="url(#linearGradient3945-2)" d="m462.58 512.36c54.03-1.37 97.42-45.63 97.42-100h-200c0 55.228 44.772 100 100 100 0.86295 0 1.7204 0.0217 2.5781 0z"/>
      <path id="path3926" stroke="#c85800" stroke-width="10" fill="#f00" d="m260 572.36c0 33.137 44.772 60 100 60s100-26.863 100-60h-200z"/>
    </g>
  </g>
  <metadata>
    <rdf:RDF>
      <cc:Work>
        <dc:format>image/svg+xml</dc:format>
        <dc:type rdf:resource="http://purl.org/dc/dcmitype/StillImage"/>
        <cc:license rdf:resource="http://creativecommons.org/licenses/publicdomain/"/>
        <dc:publisher>
          <cc:Agent rdf:about="http://openclipart.org/">
            <dc:title>Openclipart</dc:title>
          </cc:Agent>
        </dc:publisher>
        <dc:title>Sun</dc:title>
        <dc:date>2011-12-19T23:05:36</dc:date>
        <dc:description>Sun shine.</dc:description>
        <dc:source>http://openclipart.org/detail/166347/sum-by-jimyeh</dc:source>
        <dc:creator>
          <cc:Agent>
            <dc:title>jimyeh</dc:title>
          </cc:Agent>
        </dc:creator>
        <dc:subject>
          <rdf:Bag>
            <rdf:li>clip art</rdf:li>
            <rdf:li>clipart</rdf:li>
            <rdf:li>spring2013</rdf:li>
            <rdf:li>summer</rdf:li>
            <rdf:li>sun</rdf:li>
            <rdf:li>sunny</rdf:li>
          </rdf:Bag>
        </dc:subject>
      </cc:Work>
      <cc:License rdf:about="http://creativecommons.org/licenses/publicdomain/">
        <cc:permits rdf:resource="http://creativecommons.org/ns#Reproduction"/>
        <cc:permits rdf:resource="http://creativecommons.org/ns#Distribution"/>
        <cc:permits rdf:resource="http://creativecommons.org/ns#DerivativeWorks"/>
      </cc:License>
    </rdf:RDF>
  </metadata>
</svg>
